<svg xmlns="http://www.w3.org/2000/svg" viewBox="0 0 35.82 31.18"><defs><style>.cls-1{fill:#231815;}</style></defs><g id="レイヤー_2" data-name="レイヤー 2"><g id="レイヤー_1-2" data-name="レイヤー 1"><rect class="cls-1" x="3.2" y="27.49" width="1.84" height="0.45"/><path class="cls-1" d="M4.37,25.73c0-.07.07-.13.12-.14L4,25.54a4.94,4.94,0,0,1-1.52,1.9l.3.4a5.65,5.65,0,0,0,1.4-1.65,5.67,5.67,0,0,0,1.41,1.65l.31-.41A4.72,4.72,0,0,1,4.37,25.73Z"/><path class="cls-1" d="M2.83,31.11h.5v-.2h1.6v.2h.49V28.69H2.83Zm.5-2h1.6v1.29H3.33Z"/><polygon class="cls-1" points="1.76 29.17 2.15 30.59 2.52 30.48 2.12 29.07 1.76 29.17"/><path class="cls-1" d="M0,30.68l.36.17a6.67,6.67,0,0,0,.36-1.31c0-.17.06-.31.14-.33l-.46-.1A5.48,5.48,0,0,1,0,30.68Z"/><path class="cls-1" d="M1.76,27.76l.15.33c-.28.06-.61.11-.94.16L2,26.78a.55.55,0,0,1,.29-.21l-.43-.29-.64.88-.42-.34.51-.76a.59.59,0,0,1,.27-.23l-.45-.24-.64,1-.2-.15-.24.36.91.74-.56.78H0l0,.57c.14-.15.83-.18,1-.21v2.46h.43V28.58a5.25,5.25,0,0,0,.57-.13l.19.39.32-.14-.51-1.07Z"/><path class="cls-1" d="M12.67,29.71a.51.51,0,0,1,.27-.13H13l-.35-.37-1.18.88a2.44,2.44,0,0,1-.72-.71H12.3V27.32H10.81v-.24c0-.2,0-.27.08-.31h-.56v.55H8.94A6.61,6.61,0,0,0,10.53,26a5.92,5.92,0,0,0,2.65,1.62l.23-.49a5.22,5.22,0,0,1-2.6-1.49.76.76,0,0,1,.17-.2l-.61-.05a5.5,5.5,0,0,1-2.74,1.91l.28.47a7.43,7.43,0,0,0,.94-.44v3.22c-.3,0-.61.05-.95.06l.09.53a.64.64,0,0,1,.36-.1,19.83,19.83,0,0,0,2.46-.37v-.44a13.63,13.63,0,0,1-1.46.27V29.38h.86a3.67,3.67,0,0,0,3,1.8l.21-.49a4.36,4.36,0,0,1-1.57-.38Zm-3.32-2h2.44v.47H9.35Zm0,1.32v-.48h2.44V29Z"/><path class="cls-1" d="M16.11,30.17a8.67,8.67,0,0,1-.05-2c0-.32.07-2.13.33-2.31l-.62-.1a23.86,23.86,0,0,0-.22,2.43A15.77,15.77,0,0,0,15.7,31l.46.09c.12-.15.4-.8.78-1.49l-.36-.27A4.52,4.52,0,0,1,16.11,30.17Z"/><path class="cls-1" d="M19.53,27.63c.44,0,.85-.1,1.12-.15l0-.55a10,10,0,0,1-1.11.17c0-.42,0-.8-.05-1.06a.6.6,0,0,1,.13-.38h-.68c0,.16.05.78.09,1.49l-.8,0a2.74,2.74,0,0,1-.83-.08v.58a4.58,4.58,0,0,0,.67,0c.31,0,.64,0,1,0,0,.65.07,1.3.09,1.73a3,3,0,0,0-.63-.07c-.68,0-1.05.43-1.05.82a1,1,0,0,0,1.08.84c.83,0,1.14-.45,1.14-.9V30a5.45,5.45,0,0,1,1.08.54l.25-.51a13,13,0,0,0-1.35-.54C19.6,29.05,19.57,28.32,19.53,27.63Zm-.4,2.25c0,.56-.26.66-.65.66s-.59-.13-.59-.39.17-.37.55-.37a2.61,2.61,0,0,1,.69.1Z"/><path class="cls-1" d="M20.45,25.44a.6.6,0,0,0-.61.6.61.61,0,0,0,.61.6.6.6,0,0,0,.6-.6A.6.6,0,0,0,20.45,25.44Zm0,1a.4.4,0,1,1,0-.79.4.4,0,0,1,0,.79Z"/><path class="cls-1" d="M26.63,30.41a.15.15,0,0,1-.17-.17V28.93a.66.66,0,0,0-.69-.69,3.12,3.12,0,0,0-1.27.62c.49-1,1-2,1.3-2.51a.68.68,0,0,1,.36-.33l-.61-.3c-.74,1.2-2.06,4.11-2.58,5.05l.49.26c.13-.29.38-.82.67-1.42a4.24,4.24,0,0,1,1.48-.86.31.31,0,0,1,.35.33v1.41a.49.49,0,0,0,.56.51c.3,0,.84-.23,1.93-1.18l-.3-.44C27.29,30.21,26.8,30.41,26.63,30.41Z"/><path class="cls-1" d="M31.31,27.08h4.35V25.73H30.79v2.18a5,5,0,0,1-.71,2.88l.45.28a6.12,6.12,0,0,0,.78-3.16Zm0-1h3.82v.58H31.31Z"/><path class="cls-1" d="M33.79,30.6V30h1.39v-.41H33.79V29l1-.11.39.47.33-.28c-.07-.07-.84-1-.93-1.05l-.33.23s.14.15.28.31c-.52.07-1.21.11-1.85.14l.46-.79h2.44v-.37h-4v.37h1.08l-.45.81h-.59l.07.47A8.56,8.56,0,0,1,33.29,29v.53H31.9V30h1.39v.65H31.17V31h4.65V30.6Z"/><path class="cls-1" d="M21.67,8a3.39,3.39,0,0,0-.83,0A3.3,3.3,0,0,0,18.36,6.8a3.53,3.53,0,0,0-2.09.45A5,5,0,0,0,13.91,7a2.88,2.88,0,0,0-2.54,2.37,2.8,2.8,0,0,0,.47,2.25c.68.88,2,1.45,3.92,1.68a29.54,29.54,0,0,0,3.71.27c2.42,0,4-.45,4.66-1.34a2.35,2.35,0,0,0,.09-2.45A3,3,0,0,0,21.67,8Zm1.87,3.77c-.77,1-3.51,1.3-7.69.79-1.72-.22-2.87-.69-3.42-1.41A2.2,2.2,0,0,1,14,7.71a4.67,4.67,0,0,1,1.58.09,3.08,3.08,0,0,0-.67,1,.36.36,0,0,0,.21.47l.13,0a.38.38,0,0,0,.35-.23,2.61,2.61,0,0,1,2.73-1.54A2.85,2.85,0,0,1,20,8.14a3.59,3.59,0,0,0-1.71,1.21.37.37,0,1,0,.6.42,2.84,2.84,0,0,1,2.68-1,2.31,2.31,0,0,1,2,1.31A1.67,1.67,0,0,1,23.54,11.77Z"/><path class="cls-1" d="M26.61,13.72a5.29,5.29,0,0,0,0-7.21,5.31,5.31,0,0,0-5.09-5.1,5.31,5.31,0,0,0-7.21,0,5.31,5.31,0,0,0-5.1,5.1,5.31,5.31,0,0,0,0,7.21,5.31,5.31,0,0,0,5.1,5.1,5.31,5.31,0,0,0,7.21,0,5.31,5.31,0,0,0,5.09-5.1Zm-5.25,4.37h-.15l-.1.1a4.59,4.59,0,0,1-6.4,0l-.1-.1h-.15a4.58,4.58,0,0,1-4.52-4.53v-.14l-.1-.11a4.55,4.55,0,0,1,0-6.39l.1-.11V6.66a4.58,4.58,0,0,1,4.52-4.52h.15l.1-.1a4.56,4.56,0,0,1,6.4,0l.1.1h.15a4.58,4.58,0,0,1,4.52,4.52v.15l.1.11a4.58,4.58,0,0,1,0,6.39l-.1.11v.14a4.58,4.58,0,0,1-4.52,4.53Z"/></g></g></svg>