<svg xmlns="http://www.w3.org/2000/svg" viewBox="0 0 75.95 20.23"><defs><style>.cls-1{fill:#231815;}</style></defs><g id="レイヤー_2" data-name="レイヤー 2"><g id="レイヤー_1-2" data-name="レイヤー 1"><rect class="cls-1" x="31.14" y="9.05" width="2.53" height="0.62"/><path class="cls-1" d="M32.75,6.63c0-.1.1-.18.16-.2l-.73-.07A6.67,6.67,0,0,1,30.09,9l.41.56a7.88,7.88,0,0,0,1.92-2.27,7.92,7.92,0,0,0,1.94,2.27L34.78,9A6.72,6.72,0,0,1,32.75,6.63Z"/><path class="cls-1" d="M30.63,14h.69v-.28h2.2V14h.68V10.69H30.63Zm.69-2.69h2.2V13.1h-2.2Z"/><polygon class="cls-1" points="29.16 11.35 29.7 13.3 30.21 13.15 29.66 11.21 29.16 11.35"/><path class="cls-1" d="M26.77,13.43l.48.24a9,9,0,0,0,.5-1.81c0-.23.08-.43.19-.45l-.63-.13A8,8,0,0,1,26.77,13.43Z"/><path class="cls-1" d="M29.16,9.42l.22.45c-.39.09-.85.16-1.3.22l1.46-2a.7.7,0,0,1,.39-.3l-.59-.39-.87,1.2-.58-.46.7-1.05A.71.71,0,0,1,29,6.77l-.62-.34-.88,1.35-.28-.21-.32.5,1.25,1-.77,1.07h-.59l.06.79c.19-.21,1.13-.26,1.42-.3v3.39h.6v-3.5l.78-.18.25.53.44-.2-.7-1.46Z"/><path class="cls-1" d="M44.15,12.1c.19-.14.29-.19.37-.19h.07l-.48-.51-1.62,1.21a3.34,3.34,0,0,1-1-1h2.14V8.81h-2V8.49c0-.28,0-.38.11-.43h-.77v.75H39A8.9,8.9,0,0,0,41.2,7.06a8.21,8.21,0,0,0,3.65,2.21l.32-.66a7.12,7.12,0,0,1-3.58-2,1,1,0,0,1,.24-.27L41,6.22a7.63,7.63,0,0,1-3.77,2.63l.39.63a8.54,8.54,0,0,0,1.29-.6V13.3c-.41,0-.84.07-1.3.09l.12.73a.89.89,0,0,1,.5-.14,26.9,26.9,0,0,0,3.37-.51v-.6c-.61.14-1.27.26-2,.36V11.64h1.19a5,5,0,0,0,4.12,2.48l.29-.69A5.82,5.82,0,0,1,43,12.92ZM39.58,9.33h3.36V10H39.58Zm0,1.8v-.65h3.36v.65Z"/><path class="cls-1" d="M48.87,12.73A12.64,12.64,0,0,1,48.8,10c0-.45.1-2.94.45-3.19l-.84-.13A29.7,29.7,0,0,0,48.1,10a22.41,22.41,0,0,0,.2,3.81l.64.13c.16-.21.55-1.1,1.07-2l-.49-.37A6.63,6.63,0,0,1,48.87,12.73Z"/><path class="cls-1" d="M53.57,9.24c.61-.06,1.16-.14,1.54-.21l0-.76a12.19,12.19,0,0,1-1.54.24c0-.58-.05-1.1-.06-1.46a.81.81,0,0,1,.18-.52h-.93c0,.23.06,1.07.12,2.05-.39,0-.77,0-1.1,0A3.4,3.4,0,0,1,50.6,8.5l0,.81a8.42,8.42,0,0,0,.92,0c.42,0,.88,0,1.33,0,.05.88.1,1.77.12,2.36a4.59,4.59,0,0,0-.87-.09,1.3,1.3,0,0,0-1.44,1.13c0,.49.46,1.15,1.49,1.15s1.57-.62,1.57-1.23v-.08a7.9,7.9,0,0,1,1.48.75l.34-.69a15.31,15.31,0,0,0-1.85-.75C53.67,11.18,53.62,10.19,53.57,9.24ZM53,12.33c0,.76-.36.9-.89.9s-.81-.18-.81-.53.23-.51.75-.51a4.31,4.31,0,0,1,1,.13Z"/><path class="cls-1" d="M54.83,6.23a.83.83,0,1,0,0,1.65.83.83,0,1,0,0-1.65Zm0,1.36a.54.54,0,0,1-.55-.53.55.55,0,1,1,1.09,0A.54.54,0,0,1,54.83,7.59Z"/><path class="cls-1" d="M63.31,13.06a.21.21,0,0,1-.23-.23V11a.89.89,0,0,0-.94-.95,4.13,4.13,0,0,0-1.74.86c.66-1.36,1.38-2.76,1.78-3.45A.93.93,0,0,1,62.67,7l-.83-.42c-1,1.65-2.83,5.64-3.55,6.94l.68.36c.18-.41.52-1.13.91-1.95a5.89,5.89,0,0,1,2-1.19.42.42,0,0,1,.48.46v1.93c0,.38.2.7.77.7.41,0,1.15-.31,2.65-1.62l-.42-.59C64.23,12.78,63.55,13.06,63.31,13.06Z"/><path class="cls-1" d="M69.74,8.49h6V6.63H69v3a7,7,0,0,1-1,4l.62.38a8.36,8.36,0,0,0,1.06-4.34Zm0-1.33H75V8H69.74Z"/><path class="cls-1" d="M73.15,13.32v-.9h1.91v-.55H73.15v-.79c.48,0,.94-.09,1.33-.15.26.3.49.59.54.65l.45-.4c-.09-.09-1.15-1.34-1.28-1.44l-.44.32.37.43c-.71.09-1.66.15-2.53.19l.62-1.08h3.36V9.09H70V9.6h1.48l-.61,1.1h-.82l.1.64a11.51,11.51,0,0,1,2.3-.22v.74h-1.9v.55h1.9v.9h-2.9v.58H76v-.58Z"/><path class="cls-1" d="M13.87,8A3.37,3.37,0,0,0,13,8,3.3,3.3,0,0,0,10.56,6.8a3.53,3.53,0,0,0-2.09.45A5,5,0,0,0,6.11,7,2.89,2.89,0,0,0,3.57,9.35a2.86,2.86,0,0,0,.48,2.25c.67.88,2,1.45,3.91,1.68a29.54,29.54,0,0,0,3.71.27c2.43,0,4-.45,4.66-1.34a2.35,2.35,0,0,0,.09-2.45A3,3,0,0,0,13.87,8Zm1.87,3.77c-.77,1-3.5,1.3-7.69.79-1.72-.22-2.87-.69-3.42-1.41A2.21,2.21,0,0,1,4.3,9.39,2.16,2.16,0,0,1,6.19,7.71a4.58,4.58,0,0,1,1.57.09,3.08,3.08,0,0,0-.67,1,.37.37,0,0,0,.22.47l.12,0a.38.38,0,0,0,.35-.23,2.62,2.62,0,0,1,2.73-1.54,2.82,2.82,0,0,1,1.68.61,3.59,3.59,0,0,0-1.71,1.21.37.37,0,1,0,.6.42,2.84,2.84,0,0,1,2.68-1,2.36,2.36,0,0,1,2,1.31A1.67,1.67,0,0,1,15.74,11.77Z"/><path class="cls-1" d="M17.27,3a5.28,5.28,0,0,0-3.55-1.55,5.31,5.31,0,0,0-7.21,0,5.31,5.31,0,0,0-5.1,5.1,5.31,5.31,0,0,0,0,7.21,5.31,5.31,0,0,0,5.1,5.1,5.31,5.31,0,0,0,7.21,0,5.31,5.31,0,0,0,5.1-5.1,5.31,5.31,0,0,0,0-7.21A5.33,5.33,0,0,0,17.27,3Zm.92,10.35-.1.11v.14a4.58,4.58,0,0,1-4.53,4.53h-.14l-.11.1a4.58,4.58,0,0,1-6.39,0l-.11-.1H6.66a4.58,4.58,0,0,1-4.52-4.53v-.14L2,13.31A4.55,4.55,0,0,1,2,6.92l.1-.11V6.66A4.58,4.58,0,0,1,6.66,2.14h.15L6.92,2a4.55,4.55,0,0,1,6.39,0l.11.1h.14a4.58,4.58,0,0,1,4.53,4.52v.15l.1.11a4.58,4.58,0,0,1,0,6.39Z"/></g></g></svg>